#!OML:ASF F:\VICON\USERDATA\INSTALL\SteveWalk\SteveWalk.ASF
:FULLY-SPECIFIED
:DEGREES
198
root 0.187192 16.3149 -3.601 15.6971 4.38577 3.24385
lowerback -13.4888 -2.57409 -4.68262
upperback -4.75825 -2.77957 -0.314575
thorax 2.74218 -1.36015 1.87194
lowerneck -4.03566 -1.31737 -0.555146
upperneck 10.4602 -1.97297 2.30336
head 4.18004 -0.890852 0.771914
rclavicle 2.51432e-015 -8.99501e-015
rhumerus -75.9277 -39.7143 -26.7327
rradius 11.3405
rwrist 45.1978
rhand -15.0622 -36.9536
rfingers 7.12502
rthumb 11.1047 -66.6398
lclavicle 2.51432e-015 -8.99501e-015
lhumerus -21.4508 -3.76436 81.6435
lradius 37.8838
lwrist 8.88566
lhand -21.5959 -16.1294
lfingers 7.12502
lthumb 4.79893 13.7962
rfemur -48.3758 -5.27645 20.1567
rtibia 33.6021
rfoot -12.5808 -6.468
rtoes -19.7227
lfemur -12.6646 7.30128 -26.0087
ltibia 26.3067
lfoot -25.9102 -12.4816
ltoes -4.36175
199
root 0.182036 16.2969 -3.39798 15.7257 4.83084 3.40353
lowerback -13.4997 -2.69119 -4.84843
upperback -4.71177 -2.90971 -0.321489
thorax 2.81258 -1.42581 1.93469
lowerneck -3.72958 -1.43226 -0.39391
upperneck 10.0195 -2.11488 2.15751
head 3.95923 -0.96635 0.688338
rclavicle -1.04346e-014 6.75868e-015
rhumerus -75.1843 -38.6213 -28.625
rradius 11.7178
rwrist 42.458
rhand -14.8786 -36.6195
rfingers 7.12502
rthumb 11.2818 -66.2961
lclavicle -1.04346e-014 6.75868e-015
lhumerus -20.6196 -4.52816 81.5872
lradius 39.0026
lwrist 9.61806
lhand -21.8276 -15.754
lfingers 7.12502
lthumb 4.57521 14.1766
rfemur -48.3831 -5.50791 20.091
rtibia 30.8228
rfoot -12.6771 -5.80939
rtoes -19.1061
lfemur -11.2792 7.40861 -25.9027
ltibia 25.1813
lfoot -26.3053 -12.1945
ltoes -7.25218
200
root 0.176399 16.2758 -3.1966 15.7559 5.42207 3.51599
lowerback -13.3984 -2.82986 -4.92915
upperback -4.71926 -3.08767 -0.329798
thorax 2.76583 -1.51258 1.94626
lowerneck -3.79158 -1.5412 -0.236746
upperneck 9.93467 -2.26299 2.07043
head 3.93959 -1.03764 0.624311
rclavicle -1.2523e-014 -1.27222e-014
rhumerus -75.7364 -38.0715 -28.4655
rradius 11.8589
rwrist 41.5546
rhand -15.0039 -35.9706
rfingers 7.12502
rthumb 11.161 -65.6538
lclavicle -1.2523e-014 -1.27222e-014
lhumerus -19.8355 -5.19605 81.5043
lradius 39.9557
lwrist 10.2622
lhand -21.9107 -15.9431
lfingers 7.12502
lthumb 4.49501 13.9892
rfemur -48.4397 -6.12812 20.3704
rtibia 28.2727
rfoot -12.9571 -4.96414
rtoes -21.0913
lfemur -9.86536 7.28134 -25.6837
ltibia 23.9688
lfoot -26.3072 -12.125
ltoes -9.02582
201
root 0.176107 16.2646 -2.98963 15.803 6.11846 3.57635
lowerback -13.4381 -3.01943 -4.89308
upperback -4.67021 -3.33982 -0.278991
thorax 2.85794 -1.63985 1.93432
lowerneck -3.90776 -1.56274 -0.264552
upperneck 9.88914 -2.29753 2.1534
head 3.94873 -1.05164 0.654448
rclavicle -1.69797e-014 -1.02871e-014
rhumerus -76.201 -37.6602 -28.1379
rradius 11.8472
rwrist 40.9619
rhand -14.8346 -35.3
rfingers 7.12502
rthumb 11.3243 -64.9742
lclavicle -1.69797e-014 -1.02871e-014
lhumerus -19.1032 -5.65839 81.4532
lradius 41.0532
lwrist 10.779
lhand -22.0263 -16.0369
lfingers 7.12502
lthumb 4.38337 13.8978
rfemur -48.5312 -7.05104 20.8726
rtibia 25.934
rfoot -13.2252 -3.7834
rtoes -22.1014
lfemur -8.47442 6.98056 -25.377
ltibia 22.7528
lfoot -25.9757 -12.2254
ltoes -11.1798
202
root 0.180407 16.2589 -2.77501 15.9295 6.62121 3.57508
lowerback -13.7348 -3.14626 -4.77035
upperback -4.57977 -3.50554 -0.190982
thorax 3.12371 -1.72781 1.91299
lowerneck -3.93846 -1.60615 -0.401278
upperneck 9.66712 -2.35081 2.25787
head 3.88087 -1.07992 0.710465
rclavicle 5.15868e-014 8.27441e-015
rhumerus -76.3309 -37.2595 -28.1902
rradius 11.9166
rwrist 40.2378
rhand -14.5047 -35.1112
rfingers 7.12502
rthumb 11.6425 -64.7677
lclavicle 5.15868e-014 8.27441e-015
lhumerus -18.2709 -6.07471 81.4334
lradius 42.0268
lwrist 11.0424
lhand -22.3356 -15.7314
lfingers 7.12502
lthumb 4.08469 14.2092
rfemur -48.7184 -7.54388 21.0626
rtibia 23.8122
rfoot -13.4311 -1.9792
rtoes -18.7656
lfemur -7.19076 6.43615 -25.0928
ltibia 21.6291
lfoot -25.6656 -11.9025
ltoes -13.7098
203
root 0.182943 16.2435 -2.56065 16.1564 7.04117 3.68909
lowerback -14.0941 -3.22928 -4.73143
upperback -4.52781 -3.59698 -0.181172
thorax 3.37689 -1.77759 1.86647
lowerneck -4.02907 -1.70913 -0.502324
upperneck 9.46845 -2.48267 2.31457
head 3.83331 -1.14717 0.740256
rclavicle 3.81816e-014 1.26601e-014
rhumerus -76.8097 -36.9614 -27.8565
rradius 12.0389
rwrist 39.7467
rhand -15.2676 -34.4849
rfingers 7.12502
rthumb 10.9066 -64.1817
lclavicle 3.81816e-014 1.26601e-014
lhumerus -17.4462 -6.44446 81.3731
lradius 42.8328
lwrist 11.155
lhand -22.3754 -15.6622
lfingers 7.12502
lthumb 4.04625 14.2791
rfemur -48.9925 -8.05931 21.193
rtibia 21.8786
rfoot -13.5513 -0.0854723
rtoes -16.7106
lfemur -6.07992 5.70545 -24.9527
ltibia 20.6882
lfoot -25.1049 -12.4597
ltoes -10.7729
204
root 0.181152 16.2222 -2.35276 16.4074 7.45961 3.82117
lowerback -14.2614 -3.32174 -4.76391
upperback -4.59586 -3.70575 -0.167813
thorax 3.40545 -1.83022 1.87304
lowerneck -4.16271 -1.80693 -0.453057
upperneck 9.55538 -2.60964 2.2054
head 3.88947 -1.21127 0.688437
rclavicle -1.99096e-015 9.84761e-015
rhumerus -76.7796 -36.2746 -28.4979
rradius 12.1467
rwrist 38.4658
rhand -15.34 -33.9928
rfingers 7.12502
rthumb 10.8368 -63.6932
lclavicle -1.99096e-015 9.84761e-015
lhumerus -16.8112 -6.70688 81.3199
lradius 43.5425
lwrist 11.3565
lhand -22.36 -16.2469
lfingers 7.12502
lthumb 4.06117 13.6941
rfemur -49.2619 -8.74139 21.5714
rtibia 20.1176
rfoot -13.6213 1.74455
rtoes -14.4665
lfemur -5.20639 5.18116 -24.8117
ltibia 20.0161
lfoot -24.5007 -13.4127
ltoes -5.8604
205
root 0.174383 16.1901 -2.14927 16.6263 7.62221 3.8586
lowerback -14.2931 -3.35758 -4.84499
upperback -4.691 -3.74586 -0.0733174
thorax 3.33588 -1.84681 2.01159
lowerneck -4.38215 -1.8416 -0.380261
upperneck 9.70582 -2.64864 2.03029
head 3.98205 -1.23298 0.613718
rclavicle 2.26253e-014 2.38045e-014
rhumerus -76.8051 -35.7442 -28.7857
rradius 12.1725
rwrist 37.6995
rhand -13.8866 -34.3041
rfingers 7.12502
rthumb 12.2385 -63.926
lclavicle 2.26253e-014 2.38045e-014
lhumerus -16.1899 -6.78603 81.3263
lradius 44.0886
lwrist 11.3856
lhand -22.5122 -17.0869
lfingers 7.12502
lthumb 3.91414 12.8569
rfemur -49.6941 -9.30618 22.2247
rtibia 18.7443
rfoot -13.5653 3.38023
rtoes -14.0663
lfemur -4.45766 4.73842 -24.6538
ltibia 19.5427
lfoot -23.9748 -13.623
ltoes -3.22985
206
root 0.171986 16.1525 -1.93959 16.7538 7.8099 3.92676
lowerback -14.3434 -3.37925 -4.84656
upperback -4.70706 -3.77357 -0.0184413
thorax 3.35176 -1.86021 2.0629
lowerneck -4.39897 -1.83318 -0.477888
upperneck 9.48773 -2.62711 2.05563
head 3.90976 -1.22618 0.640445
rclavicle -9.35045e-015 2.50966e-014
rhumerus -77.6597 -35.7566 -27.4994
rradius 12.0794
rwrist 38.2058
rhand -12.9583 -34.2766
rfingers 7.12502
rthumb 13.1333 -63.8431
lclavicle -9.35045e-015 2.50966e-014
lhumerus -15.6665 -6.7347 81.3491
lradius 44.7353
lwrist 11.1405
lhand -22.5252 -17.6321
lfingers 7.12502
lthumb 3.9016 12.3119
rfemur -50.1603 -10.3725 23.2938
rtibia 17.7605
rfoot -13.7215 4.96219
rtoes -19.5536
lfemur -3.63054 4.15318 -24.5295
ltibia 19.2819
lfoot -24.6329 -11.8407
ltoes -10.8892
207
root 0.173107 16.1304 -1.72581 16.798 8.19988 4.02574
lowerback -14.3743 -3.44906 -4.73028
upperback -4.73027 -3.88047 -0.00723757
thorax 3.34549 -1.91253 1.98947
lowerneck -4.01815 -1.81986 -0.647319
upperneck 9.1102 -2.59269 2.10839
head 3.70514 -1.21784 0.692474
rclavicle 1.97884e-014 2.03754e-014
rhumerus -78.6243 -35.7805 -26.0203
rradius 11.914
rwrist 38.8619
rhand -12.8544 -34.1544
rfingers 7.12502
rthumb 13.2336 -63.7143
lclavicle 1.97884e-014 2.03754e-014
lhumerus -15.4891 -6.60016 81.382
lradius 45.6161
lwrist 10.9412
lhand -22.5371 -17.9393
lfingers 7.12502
lthumb 3.89009 12.0049
rfemur -50.1102 -10.8489 23.5243
rtibia 17.0956
rfoot -13.8668 6.17213
rtoes -20.0471
lfemur -2.78961 3.54253 -24.3595
ltibia 19.2119
lfoot -24.1103 -12.2038
ltoes -8.94667
208
root 0.175671 16.101 -1.50772 16.8478 8.54895 4.03866
lowerback -14.5177 -3.55037 -4.52795
upperback -4.67611 -4.03706 0.0894052
thorax 3.48515 -1.99298 1.93947
lowerneck -4.06881 -1.79086 -0.656386
upperneck 9.03188 -2.52697 1.8453
head 3.68149 -1.19676 0.609853
rclavicle 3.19818e-014 -1.39149e-015
rhumerus -78.812 -35.6969 -25.5717
rradius 11.8595
rwrist 39.0256
rhand -12.8201 -34.5606
rfingers 7.12502
rthumb 13.2666 -64.1184
lclavicle 3.19818e-014 -1.39149e-015
lhumerus -15.2151 -6.3463 81.4343
lradius 46.4012
lwrist 11.0178
lhand -22.6334 -18.2266
lfingers 7.12502
lthumb 3.79713 11.7193
rfemur -50.0125 -10.6278 23.2241
rtibia 17.1128
rfoot -14.0977 6.10568
rtoes -18.2399
lfemur -1.94121 2.92136 -24.1359
ltibia 19.0491
lfoot -24.2833 -10.8437
ltoes -17.5996
209
root 0.178676 16.0646 -1.28208 16.8768 8.78083 3.93076
lowerback -14.6011 -3.59456 -4.21861
upperback -4.65376 -4.14067 0.229572
thorax 3.55104 -2.04538 1.88888
lowerneck -4.50912 -1.79379 -0.442922
upperneck 9.17463 -2.50111 1.327
head 3.80451 -1.19562 0.398543
rclavicle -8.26199e-016 2.32578e-014
rhumerus -78.8921 -35.5486 -25.3418
rradius 11.9144
rwrist 39.067
rhand -12.6372 -34.6715
rfingers 7.12502
rthumb 13.4429 -64.2177
lclavicle -8.26199e-016 2.32578e-014
lhumerus -14.9972 -6.21212 81.5163
lradius 47.0325
lwrist 11.1539
lhand -22.6975 -18.5301
lfingers 7.12502
lthumb 3.73527 11.4169
rfemur -50.0893 -10.3616 23.1695
rtibia 17.7494
rfoot -14.2153 5.06007
rtoes -19.9116
lfemur -1.04131 2.3526 -23.8045
ltibia 18.8707
lfoot -24.3435 -10.2304
ltoes -23.4079
210
root 0.171391 16.0525 -1.05228 16.7726 9.08028 3.85974
lowerback -14.5144 -3.67545 -4.08695
upperback -4.66431 -4.27711 0.375505
thorax 3.5047 -2.11198 1.94813
lowerneck -4.50818 -1.80872 -0.362004
upperneck 9.03216 -2.48961 0.941548
head 3.74589 -1.20437 0.258208
rclavicle 7.43113e-015 5.1684e-015
rhumerus -79.4999 -35.5665 -24.1544
rradius 11.8549
rwrist 39.753
rhand -12.4116 -34.4384
rfingers 7.12502
rthumb 13.6603 -63.9701
lclavicle 7.43113e-015 5.1684e-015
lhumerus -15.1713 -6.07735 81.6262
lradius 47.8588
lwrist 11.3189
lhand -22.7132 -18.7346
lfingers 7.12502
lthumb 3.72005 11.2127
rfemur -49.3994 -9.03443 22.0168
rtibia 18.3223
rfoot -12.2946 2.41789
rtoes -31.4646
lfemur -0.341991 1.70408 -23.4015
ltibia 19.2918
lfoot -23.7361 -10.9128
ltoes -22.5897
